<svg version="1.1" viewBox="0.0 0.0 737.1181102362204 165.501312335958" fill="none" stroke="none" stroke-linecap="square" stroke-miterlimit="10" xmlns:xlink="http://www.w3.org/1999/xlink" xmlns="http://www.w3.org/2000/svg"><clipPath id="p.0"><path d="m0 0l737.1181 0l0 165.50131l-737.1181 0l0 -165.50131z" clip-rule="nonzero"/></clipPath><g clip-path="url(#p.0)"><path fill="#000000" fill-opacity="0.0" d="m0 0l737.1181 0l0 165.50131l-737.1181 0z" fill-rule="evenodd"/><path fill="#000000" fill-opacity="0.0" d="m127.51181 74.062996l549.1969 0" fill-rule="evenodd"/><path stroke="#665ec7" stroke-width="8.0" stroke-linejoin="round" stroke-linecap="butt" d="m127.51181 74.062996l501.19687 0" fill-rule="evenodd"/><path fill="#665ec7" stroke="#665ec7" stroke-width="8.0" stroke-linecap="butt" d="m628.7087 87.27685l36.30475 -13.213852l-36.30475 -13.213863z" fill-rule="evenodd"/><defs><linearGradient id="p.1" gradientUnits="userSpaceOnUse" gradientTransform="matrix(11.335978220760683 0.0 0.0 11.335978220760683 0.0 0.0)" spreadMethod="pad" x1="0.8184750395960546" y1="0.8654355379084729" x2="0.8184340009811747" y2="12.201413758594875"><stop offset="0.0" stop-color="#389826"/><stop offset="0.35" stop-color="#4063d8"/><stop offset="0.69" stop-color="#9558b2"/><stop offset="1.0" stop-color="#cb3c33"/></linearGradient></defs><path fill="url(#p.1)" d="m9.278215 74.062996l0 0c0 -35.485386 28.766584 -64.25197 64.25197 -64.25197l0 0c17.04068 0 33.383423 6.7693844 45.433006 18.818966c12.049583 12.04958 18.818962 28.392323 18.818962 45.433006l0 0c0 35.485382 -28.766586 64.25196 -64.25197 64.25196l0 0c-35.485382 0 -64.25197 -28.766579 -64.25197 -64.25196z" fill-rule="evenodd"/><path fill="#cb3c33" d="m-625.3753 217.0l0 0c0 -35.485382 28.76654 -64.25197 64.25195 -64.25197l0 0c17.04065 0 33.383423 6.7693787 45.432983 18.81897c12.049591 12.049576 18.81897 28.392319 18.81897 45.433l0 0c0 35.485382 -28.766602 64.25198 -64.25195 64.25198l0 0c-35.485413 0 -64.25195 -28.766602 -64.25195 -64.25198z" fill-rule="evenodd"/><path fill="#389826" d="m-401.36746 470.0315l0 0c0 -35.485382 28.766602 -64.25195 64.25198 -64.25195l0 0c17.04068 0 33.383423 6.7693787 45.432983 18.81894c12.049591 12.049591 18.81897 28.392334 18.81897 45.433014l0 0c0 35.485382 -28.766571 64.25195 -64.25195 64.25195l0 0c-35.485382 0 -64.25198 -28.766571 -64.25198 -64.25195z" fill-rule="evenodd"/><path fill="#9558b2" d="m-554.8845 325.20996l0 0c0 -35.485382 28.766602 -64.25195 64.25198 -64.25195l0 0c17.04068 0 33.383423 6.7693787 45.432983 18.81897c12.049591 12.049561 18.81897 28.392303 18.81897 45.432983l0 0c0 35.485382 -28.766571 64.25198 -64.25195 64.25198l0 0c-35.485382 0 -64.25198 -28.766602 -64.25198 -64.25198z" fill-rule="evenodd"/><path fill="#4063d8" d="m-254.66142 279.37796l0 0c0 -35.485397 28.766586 -64.25197 64.25197 -64.25197l0 0c17.04068 0 33.383423 6.7693787 45.433014 18.818954c12.049576 12.049591 18.818962 28.392334 18.818962 45.433014l0 0c0 35.485382 -28.766594 64.25195 -64.251976 64.25195l0 0c-35.485382 0 -64.25197 -28.766571 -64.25197 -64.25195z" fill-rule="evenodd"/><defs><linearGradient id="p.2" gradientUnits="userSpaceOnUse" gradientTransform="matrix(11.335959990780587 0.0 0.0 11.335959990780587 0.0 0.0)" spreadMethod="pad" x1="59.69575245216837" y1="0.8654733896479874" x2="59.69571265708389" y2="12.201433380358726"><stop offset="0.0" stop-color="#389826"/><stop offset="0.35" stop-color="#4063d8"/><stop offset="0.69" stop-color="#9558b2"/><stop offset="1.0" stop-color="#cb3c33"/></linearGradient></defs><path fill="url(#p.2)" d="m676.7087 9.811024l14.393677 0l0 128.50394l-14.393677 0z" fill-rule="evenodd"/><path fill="#ffffff" d="m99.481674 111.342186c-18.96672 13.203621 -44.823772 10.0616 -60.076336 -7.300186c-15.252563 -17.361778 -15.037916 -43.40815 0.49871063 -60.516197c15.536629 -17.10805 41.44195 -19.823502 60.188496 -6.3090897l-6.6045303 9.161476c-14.085396 -10.154186 -33.54962 -8.113907 -45.22322 4.7403984c-11.673603 12.854305 -11.834881 32.424503 -0.3747139 45.469448c11.460167 13.044952 30.888119 15.405746 45.138958 5.4850693z" fill-rule="evenodd"/><path fill="#000000" fill-opacity="0.0" d="m86.6168 -25.971128l646.58264 0l0 151.62204l-646.58264 0z" fill-rule="evenodd"/><path fill="#000000" d="m212.16367 75.21637q0 8.796875 -2.28125 15.703125q-2.265625 6.890625 -6.5625 11.65625q-4.296875 4.75 -10.390625 7.25q-6.078125 2.5 -13.765625 2.5q-7.15625 0 -13.125 -2.5q-5.953125 -2.5 -10.28125 -7.25q-4.328125 -4.765625 -6.703125 -11.65625q-2.375 -6.90625 -2.375 -15.703125q0 -11.71875 3.96875 -19.953125q3.96875 -8.234375 11.359375 -12.5625q7.390625 -4.328125 17.609375 -4.328125q9.765625 0 17.09375 4.359375q7.328125 4.359375 11.390625 12.609375q4.0625 8.234375 4.0625 19.875zm-54.28125 0q0 8.59375 2.265625 14.921875q2.28125 6.3125 7.03125 9.765625q4.765625 3.4375 12.25 3.4375q7.421875 0 12.203125 -3.4375q4.78125 -3.453125 7.0625 -9.765625q2.28125 -6.328125 2.28125 -14.921875q0 -8.515625 -2.28125 -14.734375q-2.28125 -6.21875 -7.03125 -9.609375q-4.75 -3.390625 -12.296875 -3.390625q-11.140625 0 -16.3125 7.359375q-5.171875 7.359375 -5.171875 20.375zm106.7677 -36.84375q12.6875 0 19.1875 6.21875q6.515625 6.21875 6.515625 19.953125l0 46.484375l-10.671875 0l0 -45.765625q0 -8.921875 -4.078125 -13.34375q-4.0625 -4.4375 -12.453125 -4.4375q-11.859375 0 -16.671875 6.71875q-4.8125 6.703125 -4.8125 19.453125l0 37.375l-10.8125 0l0 -71.34375l8.71875 0l1.640625 10.28125l0.578125 0q2.28125 -3.78125 5.796875 -6.34375q3.515625 -2.578125 7.875 -3.90625q4.359375 -1.34375 9.1875 -1.34375zm71.01764 65.109375q2.671875 0 5.46875 -0.453125q2.796875 -0.46875 4.5625 -1.109375l0 8.390625q-1.890625 0.84375 -5.25 1.421875q-3.34375 0.59375 -6.53125 0.59375q-5.671875 0 -10.296875 -1.984375q-4.625 -1.984375 -7.390625 -6.734375q-2.765625 -4.75 -2.765625 -13.15625l0 -42.3125l-10.15625 0l0 -5.265625l10.21875 -4.234375l4.296875 -15.499998l6.515625 0l0 16.546873l20.90625 0l0 8.453125l-20.90625 0l0 42.0q0 6.703125 3.09375 10.03125q3.09375 3.3125 8.234375 3.3125zm51.946045 -65.109375q9.125 0 15.625 4.046875q6.515625 4.03125 9.96875 11.296875q3.453125 7.25 3.453125 16.953125l0 6.703125l-49.28125 0q0.1875 12.5625 6.234375 19.140625q6.0625 6.578125 17.0625 6.578125q6.78125 0 11.984375 -1.234375q5.203125 -1.25 10.8125 -3.65625l0 9.515625q-5.40625 2.40625 -10.71875 3.5q-5.296875 1.109375 -12.53125 1.109375q-10.28125 0 -17.9375 -4.1875q-7.640625 -4.203125 -11.875 -12.34375q-4.234375 -8.140625 -4.234375 -19.921875q0 -11.515625 3.875 -19.953125q3.875 -8.4375 10.9375 -12.984375q7.0625 -4.5625 16.625 -4.5625zm-0.125 8.859375q-8.65625 0 -13.796875 5.671875q-5.140625 5.65625 -6.125 15.8125l37.765625 0q-0.0625 -6.390625 -1.984375 -11.234375q-1.921875 -4.84375 -5.828125 -7.546875q-3.90625 -2.703125 -10.03125 -2.703125zm64.52313 27.28125l-24.6875 -34.828125l12.375 0l18.8125 27.46875l18.75 -27.46875l12.25 0l-24.6875 34.828125l26.046875 36.515625l-12.375 0l-19.984375 -29.09375l-20.109375 29.09375l-12.25 0l25.859375 -36.515625zm75.835846 28.96875q2.671875 0 5.46875 -0.453125q2.796875 -0.46875 4.5625 -1.109375l0 8.390625q-1.890625 0.84375 -5.25 1.421875q-3.34375 0.59375 -6.53125 0.59375q-5.671875 0 -10.296875 -1.984375q-4.6250305 -1.984375 -7.3906555 -6.734375q-2.765625 -4.75 -2.765625 -13.15625l0 -42.3125l-10.15625 0l0 -5.265625l10.21875 -4.234375l4.296875 -15.499998l6.5156555 0l0 16.546873l20.90625 0l0 8.453125l-20.90625 0l0 42.0q0 6.703125 3.09375 10.03125q3.09375 3.3125 8.234375 3.3125zm70.633545 -11.984375q0 6.84375 -3.421875 11.5q-3.40625 4.640625 -9.765625 6.984375q-6.34375 2.34375 -15.125 2.34375q-7.484375 0 -12.953125 -1.171875q-5.46875 -1.171875 -9.578125 -3.3125l0 -9.96875q4.359375 2.15625 10.40625 3.921875q6.0625 1.75 12.375 1.75q9.25 0 13.40625 -2.984375q4.171875 -3.0 4.171875 -8.15625q0 -2.921875 -1.65625 -5.171875q-1.65625 -2.25 -5.5625 -4.359375q-3.90625 -2.109375 -10.8125 -4.65625q-6.828125 -2.609375 -11.8125 -5.171875q-4.984375 -2.578125 -7.6875 -6.28125q-2.703125 -3.71875 -2.703125 -9.640625q0 -9.046875 7.328125 -13.890625q7.328125 -4.859375 19.234375 -4.859375q6.453125 0 12.078125 1.28125q5.640625 1.265625 10.515625 3.40625l-3.640625 8.65625q-4.421875 -1.890625 -9.4375 -3.1875q-5.015625 -1.296875 -10.21875 -1.296875q-7.5 0 -11.5 2.46875q-4.0 2.46875 -4.0 6.765625q0 3.328125 1.84375 5.484375q1.859375 2.140625 5.953125 4.03125q4.109375 1.890625 10.828125 4.421875q6.703125 2.46875 11.578125 5.109375q4.890625 2.640625 7.515625 6.390625q2.640625 3.734375 2.640625 9.59375zm15.757935 12.765625q0 -4.5625 2.203125 -6.484375q2.21875 -1.921875 5.40625 -1.921875q3.328125 0 5.609375 1.921875q2.28125 1.921875 2.28125 6.484375q0 4.484375 -2.28125 6.546875q-2.28125 2.046875 -5.609375 2.046875q-3.1875 0 -5.40625 -2.046875q-2.203125 -2.0625 -2.203125 -6.546875zm28.055908 38.796875q-3.3125 0 -5.78125 -0.5q-2.484375 -0.484375 -4.3125 -1.125l0 -8.796875q2.03125 0.65625 4.109375 1.015625q2.078125 0.359375 4.6875 0.359375q4.421875 0 7.15625 -2.484375q2.734375 -2.46875 2.734375 -8.984375l0 -82.859375l10.8125 0l0 82.609375q0 6.5 -2.09375 11.15625q-2.078125 4.65625 -6.375 7.125q-4.296875 2.484375 -10.9375 2.484375zm7.625 -122.984375q0 -3.640625 1.84375 -5.359375q1.859375 -1.734375 4.65625 -1.734375q2.671875 0 4.59375 1.734375q1.921875 1.71875 1.921875 5.359375q0 3.59375 -1.921875 5.359375q-1.921875 1.75 -4.59375 1.75q-2.796875 0 -4.65625 -1.75q-1.84375 -1.765625 -1.84375 -5.359375z" fill-rule="nonzero"/></g></svg>